<svg width="51" height="25" viewBox="0 0 51 25" fill="none" xmlns="http://www.w3.org/2000/svg">
<path d="M2.34289 20.0247C2.11834 19.6636 1.81894 19.0868 1.63401 18.6597C0.555287 16.1589 0.506854 13.5699 1.41386 11.0867C2.41334 8.36122 4.32422 6.27862 6.79428 5.2131C9.89836 3.87901 13.3283 4.13878 16.3047 5.90437C18.1935 6.9875 19.532 8.66062 20.5491 11.0294C20.6768 11.3332 20.7913 11.6546 20.9058 11.932L2.34289 20.0247ZM8.54226 9.23301C6.33637 10.1796 5.20041 12.249 5.43817 14.6707L14.7724 10.6508C13.1654 8.76629 11.0784 8.14107 8.54226 9.23301V9.23301ZM15.9348 17.9773C15.9304 17.9773 15.9304 17.9817 15.9304 17.9817L15.7367 17.8496C15.1775 18.7522 14.3101 19.4875 13.2138 19.963C11.1268 20.87 9.19389 20.6367 7.80256 19.417L7.67487 19.6108C7.67487 19.6108 7.67487 19.6064 7.67047 19.6064L5.30167 23.1508C5.89167 23.5602 6.5213 23.9037 7.18174 24.1811C9.7971 25.2686 12.4741 25.2157 15.1115 24.071C17.018 23.2432 18.515 21.984 19.5364 20.3857L15.9348 17.9773ZM27.3913 0V19.6988L30.4558 20.9405L28.7166 25L25.3351 23.5911C24.5778 23.2608 24.0583 22.7589 23.6708 22.1909C23.2966 21.6141 23.0192 20.8172 23.0192 19.7517V0H27.3913ZM35.3255 14.6839C35.3255 13.0063 36.0696 11.5005 37.2407 10.479L34.097 6.97429C31.966 8.85875 30.6231 11.6106 30.6231 14.6751C30.6187 17.7439 31.9616 20.5002 34.0882 22.3846L37.2275 18.8799C36.0607 17.854 35.3255 16.357 35.3255 14.6839V14.6839ZM40.9084 20.2712C40.292 20.2712 39.6932 20.1656 39.1384 19.9806L37.637 24.4408C38.6629 24.7843 39.7592 24.9736 40.904 24.9736C45.8793 24.978 50.0313 21.4468 50.9956 16.7577L46.3813 15.8154C45.8573 18.3647 43.6074 20.2756 40.9084 20.2712V20.2712ZM40.9216 4.39415C39.7812 4.39415 38.6849 4.57908 37.659 4.91811L39.1472 9.38271C39.7064 9.19778 40.3008 9.09651 40.9172 9.09651C43.6206 9.10092 45.8749 11.0206 46.3857 13.5743L51 12.6409C50.0534 7.94294 45.9014 4.39856 40.9216 4.39415V4.39415Z" fill="#16084C"/>
</svg>
